<mxfile host="app.diagrams.net" agent="Mozilla/5.0 (Windows NT 10.0; Win64; x64) AppleWebKit/537.36 (KHTML, like Gecko) Chrome/131.0.0.0 Safari/537.36" version="24.9.1">
  <diagram name="Page-1" id="e7e014a7-5840-1c2e-5031-d8a46d1fe8dd">
    <mxGraphModel dx="1562" dy="818" grid="0" gridSize="10" guides="1" tooltips="1" connect="1" arrows="1" fold="1" page="1" pageScale="1" pageWidth="1169" pageHeight="826" background="none" math="0" shadow="0">
      <root>
        <mxCell id="0" />
        <mxCell id="1" parent="0" />
        <mxCell id="aIglOkuosVMDsxWIaqB6-41" value="Landing Zone" style="swimlane;whiteSpace=wrap;html=1;fillColor=#dae8fc;strokeColor=#6c8ebf;" parent="1" vertex="1">
          <mxGeometry x="533" y="159" width="235" height="262" as="geometry" />
        </mxCell>
        <mxCell id="rdCA3PwaNmoLZC2goT2M-3" style="edgeStyle=orthogonalEdgeStyle;rounded=0;orthogonalLoop=1;jettySize=auto;html=1;exitX=0.5;exitY=1;exitDx=0;exitDy=0;entryX=0.5;entryY=0;entryDx=0;entryDy=0;" parent="aIglOkuosVMDsxWIaqB6-41" source="rdCA3PwaNmoLZC2goT2M-1" target="rdCA3PwaNmoLZC2goT2M-2" edge="1">
          <mxGeometry relative="1" as="geometry" />
        </mxCell>
        <mxCell id="rdCA3PwaNmoLZC2goT2M-4" value="processing" style="edgeLabel;html=1;align=center;verticalAlign=middle;resizable=0;points=[];" parent="rdCA3PwaNmoLZC2goT2M-3" vertex="1" connectable="0">
          <mxGeometry x="-0.2566" relative="1" as="geometry">
            <mxPoint as="offset" />
          </mxGeometry>
        </mxCell>
        <mxCell id="rdCA3PwaNmoLZC2goT2M-1" value="Run Procedure" style="rounded=1;whiteSpace=wrap;html=1;fillColor=#fff2cc;strokeColor=#d6b656;" parent="aIglOkuosVMDsxWIaqB6-41" vertex="1">
          <mxGeometry x="58" y="55" width="120" height="60" as="geometry" />
        </mxCell>
        <mxCell id="rdCA3PwaNmoLZC2goT2M-2" value="Result: STP_MAIN" style="rounded=0;whiteSpace=wrap;html=1;fillColor=#d5e8d4;strokeColor=#82b366;" parent="aIglOkuosVMDsxWIaqB6-41" vertex="1">
          <mxGeometry x="43.25" y="164" width="148.5" height="60" as="geometry" />
        </mxCell>
        <mxCell id="aIglOkuosVMDsxWIaqB6-45" style="edgeStyle=orthogonalEdgeStyle;rounded=0;orthogonalLoop=1;jettySize=auto;html=1;exitX=1;exitY=0.5;exitDx=0;exitDy=0;entryX=0;entryY=0.5;entryDx=0;entryDy=0;" parent="1" source="aIglOkuosVMDsxWIaqB6-44" target="aIglOkuosVMDsxWIaqB6-41" edge="1">
          <mxGeometry relative="1" as="geometry" />
        </mxCell>
        <mxCell id="aIglOkuosVMDsxWIaqB6-44" value="Source System" style="swimlane;whiteSpace=wrap;html=1;fillColor=#ffe6cc;strokeColor=#d79b00;" parent="1" vertex="1">
          <mxGeometry x="260" y="192" width="161" height="196" as="geometry" />
        </mxCell>
        <mxCell id="rdCA3PwaNmoLZC2goT2M-5" value="T24,&lt;br&gt;W4&lt;br&gt;EWS" style="shape=cylinder3;whiteSpace=wrap;html=1;boundedLbl=1;backgroundOutline=1;size=15;" parent="aIglOkuosVMDsxWIaqB6-44" vertex="1">
          <mxGeometry x="50.5" y="58" width="60" height="80" as="geometry" />
        </mxCell>
        <mxCell id="4N-mkqKZS08hgUV7qzOm-1" value="Landing Zone" style="swimlane;whiteSpace=wrap;html=1;fillColor=#dae8fc;strokeColor=#6c8ebf;" vertex="1" parent="1">
          <mxGeometry x="194" y="512" width="235" height="220" as="geometry" />
        </mxCell>
        <mxCell id="4N-mkqKZS08hgUV7qzOm-5" value="&lt;span style=&quot;font-family: &amp;quot;Times New Roman&amp;quot;, serif;&quot;&gt;&lt;font style=&quot;font-size: 13px;&quot;&gt;PROC: VIEWZONE.&lt;br&gt;PR_BPM_LNACC_INFO&lt;/font&gt;&lt;/span&gt;" style="rounded=0;whiteSpace=wrap;html=1;fillColor=#fff2cc;strokeColor=#d6b656;" vertex="1" parent="4N-mkqKZS08hgUV7qzOm-1">
          <mxGeometry x="34.620000000000005" y="76.5" width="165.75" height="68" as="geometry" />
        </mxCell>
        <mxCell id="4N-mkqKZS08hgUV7qzOm-8" style="edgeStyle=orthogonalEdgeStyle;rounded=0;orthogonalLoop=1;jettySize=auto;html=1;exitX=0;exitY=0.25;exitDx=0;exitDy=0;entryX=1;entryY=0.25;entryDx=0;entryDy=0;" edge="1" parent="1" source="4N-mkqKZS08hgUV7qzOm-7" target="4N-mkqKZS08hgUV7qzOm-5">
          <mxGeometry relative="1" as="geometry" />
        </mxCell>
        <mxCell id="4N-mkqKZS08hgUV7qzOm-9" value="Call Procedure" style="edgeLabel;html=1;align=center;verticalAlign=middle;resizable=0;points=[];" vertex="1" connectable="0" parent="4N-mkqKZS08hgUV7qzOm-8">
          <mxGeometry x="-0.3388" y="1" relative="1" as="geometry">
            <mxPoint x="-4" y="-10" as="offset" />
          </mxGeometry>
        </mxCell>
        <mxCell id="4N-mkqKZS08hgUV7qzOm-7" value="RB Approval System" style="swimlane;whiteSpace=wrap;html=1;fillColor=#d5e8d4;strokeColor=#82b366;" vertex="1" parent="1">
          <mxGeometry x="620" y="512" width="200" height="221" as="geometry" />
        </mxCell>
        <mxCell id="4N-mkqKZS08hgUV7qzOm-10" style="edgeStyle=orthogonalEdgeStyle;rounded=0;orthogonalLoop=1;jettySize=auto;html=1;exitX=1;exitY=0.75;exitDx=0;exitDy=0;entryX=0;entryY=0.75;entryDx=0;entryDy=0;" edge="1" parent="1" source="4N-mkqKZS08hgUV7qzOm-5" target="4N-mkqKZS08hgUV7qzOm-7">
          <mxGeometry relative="1" as="geometry" />
        </mxCell>
        <mxCell id="4N-mkqKZS08hgUV7qzOm-11" value="Json Response" style="edgeLabel;html=1;align=center;verticalAlign=middle;resizable=0;points=[];" vertex="1" connectable="0" parent="4N-mkqKZS08hgUV7qzOm-10">
          <mxGeometry x="0.3211" y="-4" relative="1" as="geometry">
            <mxPoint x="-11" y="5" as="offset" />
          </mxGeometry>
        </mxCell>
      </root>
    </mxGraphModel>
  </diagram>
</mxfile>
